HIERARCHY
ROOT Hips
{
	OFFSET 0.000000 83.214638 0.000000
	CHANNELS 6 Xposition Yposition Zposition Xrotation Yrotation Zrotation
	JOINT Pelvis
	{
		OFFSET 0.000000 0.000000 0.000000
		CHANNELS 3 Xrotation Yrotation Zrotation
		JOINT LeftUpLeg
		{
			OFFSET 8.479700 -4.795502 -0.379100
			CHANNELS 3 Xrotation Yrotation Zrotation
			JOINT LeftLeg
			{
				OFFSET 0.024144 -32.555107 0.112900
				CHANNELS 3 Xrotation Yrotation Zrotation
				JOINT LeftFoot
				{
					OFFSET -0.024144 -32.638630 -3.012600
					CHANNELS 3 Xrotation Yrotation Zrotation
					JOINT LeftToeBase
					{
						OFFSET 0.970200 -13.225400 11.864200
						CHANNELS 3 Xrotation Yrotation Zrotation
						End Site
						{
							OFFSET 0.000000 12.319262 0.000000
						}
					}
					JOINT LFootTongue
					{
						OFFSET 1.142400 -1.059800 6.665200
						CHANNELS 3 Xrotation Yrotation Zrotation
						End Site
						{
							OFFSET 0.000000 12.319262 0.000000
						}
					}
				}
				JOINT LeftPantLeg
				{
					OFFSET 0.918482 -16.533964 -2.284700
					CHANNELS 3 Xrotation Yrotation Zrotation
					End Site
					{
						OFFSET 0.350399 24.744368 0.000000
					}
				}
			}
		}
		JOINT RightUpLeg
		{
			OFFSET -8.479700 -4.795502 -0.379100
			CHANNELS 3 Xrotation Yrotation Zrotation
			JOINT RightLeg
			{
				OFFSET -0.023144 -32.555092 0.112900
				CHANNELS 3 Xrotation Yrotation Zrotation
				JOINT RightFoot
				{
					OFFSET 0.023144 -32.638641 -3.012700
					CHANNELS 3 Xrotation Yrotation Zrotation
					JOINT RightToeBase
					{
						OFFSET -0.970200 -13.225400 11.864200
						CHANNELS 3 Xrotation Yrotation Zrotation
						End Site
						{
							OFFSET 0.000000 12.319244 0.000000
						}
					}
					JOINT RFootTongue
					{
						OFFSET -1.142200 -1.059800 6.665200
						CHANNELS 3 Xrotation Yrotation Zrotation
						End Site
						{
							OFFSET 0.000000 12.319243 0.000000
						}
					}
				}
				JOINT RightPantLeg
				{
					OFFSET -0.919482 -16.533978 -2.284800
					CHANNELS 3 Xrotation Yrotation Zrotation
					End Site
					{
						OFFSET -0.350400 24.744419 0.000000
					}
				}
			}
		}
	}
	JOINT Spine
	{
		OFFSET 0.000000 7.722000 1.166200
		CHANNELS 3 Xrotation Yrotation Zrotation
		JOINT Spine1
		{
			OFFSET 0.000000 12.024101 0.248800
			CHANNELS 3 Xrotation Yrotation Zrotation
			JOINT Spine2
			{
				OFFSET 0.000000 11.502998 -0.491200
				CHANNELS 3 Xrotation Yrotation Zrotation
				JOINT Neck
				{
					OFFSET 0.000000 18.430702 -3.123100
					CHANNELS 3 Xrotation Yrotation Zrotation
					JOINT Head
					{
						OFFSET 0.000000 9.051102 1.034000
						CHANNELS 3 Xrotation Yrotation Zrotation
						JOINT HairB
						{
							OFFSET 0.208400 24.786102 24.822300
							CHANNELS 3 Xrotation Yrotation Zrotation
							End Site
							{
								OFFSET 0.000000 32.263779 0.000000
							}
						}
						JOINT HairA
						{
							OFFSET -7.081100 24.428299 23.196600
							CHANNELS 3 Xrotation Yrotation Zrotation
							End Site
							{
								OFFSET 0.000000 32.263779 0.000000
							}
						}
						JOINT Hat
						{
							OFFSET 16.728800 15.048294 -15.439601
							CHANNELS 3 Xrotation Yrotation Zrotation
							End Site
							{
								OFFSET 0.000000 32.263779 0.000000
							}
						}
					}
				}
				JOINT LeftShoulder
				{
					OFFSET 6.197800 13.665199 -4.064700
					CHANNELS 3 Xrotation Yrotation Zrotation
					JOINT LeftArm
					{
						OFFSET 7.778100 -0.187103 -1.709300
						CHANNELS 3 Xrotation Yrotation Zrotation
						JOINT LeftForeArm
						{
							OFFSET 22.049376 0.000000 0.000000
							CHANNELS 3 Xrotation Yrotation Zrotation
							JOINT LeftHand
							{
								OFFSET 23.009392 0.000000 0.000000
								CHANNELS 3 Xrotation Yrotation Zrotation
								JOINT LeftHandThumb1
								{
									OFFSET 3.507191 -2.063065 3.133727
									CHANNELS 3 Xrotation Yrotation Zrotation
									JOINT LeftHandThumb2
									{
										OFFSET 3.101337 -1.790558 1.790558
										CHANNELS 3 Xrotation Yrotation Zrotation
										JOINT LeftHandThumb3
										{
											OFFSET 3.058640 -1.765907 1.765906
											CHANNELS 3 Xrotation Yrotation Zrotation
											End Site
											{
												OFFSET -0.415260 3.926476 -0.049563
											}
										}
									}
								}
								JOINT LeftHandIndex1
								{
									OFFSET 11.334419 -0.901459 3.706815
									CHANNELS 3 Xrotation Yrotation Zrotation
									JOINT LeftHandIndex2
									{
										OFFSET 3.283112 0.000000 0.000000
										CHANNELS 3 Xrotation Yrotation Zrotation
										JOINT LeftHandIndex3
										{
											OFFSET 3.323853 0.000000 0.000000
											CHANNELS 3 Xrotation Yrotation Zrotation
											End Site
											{
												OFFSET -1.135597 3.097809 0.402452
											}
										}
									}
								}
								JOINT LeftHandMiddle1
								{
									OFFSET 11.335861 0.000000 0.000000
									CHANNELS 3 Xrotation Yrotation Zrotation
									JOINT LeftHandMiddle2
									{
										OFFSET 3.410492 0.000000 0.000000
										CHANNELS 3 Xrotation Yrotation Zrotation
										JOINT LeftHandMiddle3
										{
											OFFSET 3.312172 0.000000 0.000000
											CHANNELS 3 Xrotation Yrotation Zrotation
											End Site
											{
												OFFSET -1.150200 3.080154 0.400270
											}
										}
									}
								}
								JOINT LeftHandRing1
								{
									OFFSET 11.514786 -0.013176 -3.003090
									CHANNELS 3 Xrotation Yrotation Zrotation
									JOINT LeftHandRing2
									{
										OFFSET 3.053307 0.000000 0.000000
										CHANNELS 3 Xrotation Yrotation Zrotation
										JOINT LeftHandRing3
										{
											OFFSET 3.295807 0.000000 0.000000
											CHANNELS 3 Xrotation Yrotation Zrotation
											End Site
											{
												OFFSET -1.281006 3.013344 0.375733
											}
										}
									}
								}
								JOINT LeftHandPinky1
								{
									OFFSET 10.518692 -0.960396 -5.730441
									CHANNELS 3 Xrotation Yrotation Zrotation
									JOINT LeftHandPinky2
									{
										OFFSET 2.861649 0.000000 0.000000
										CHANNELS 3 Xrotation Yrotation Zrotation
										JOINT LeftHandPinky3
										{
											OFFSET 2.863380 0.000000 0.000000
											CHANNELS 3 Xrotation Yrotation Zrotation
											End Site
											{
												OFFSET -0.843597 2.711159 0.369971
											}
										}
									}
								}
							}
							JOINT LSleeve
							{
								OFFSET 6.676277 -0.344902 -1.011730
								CHANNELS 3 Xrotation Yrotation Zrotation
								End Site
								{
									OFFSET 0.000000 14.885353 0.000000
								}
							}
						}
					}
				}
				JOINT RightShoulder
				{
					OFFSET -6.197800 13.665199 -4.064700
					CHANNELS 3 Xrotation Yrotation Zrotation
					JOINT RightArm
					{
						OFFSET -7.778100 -0.187103 -1.709300
						CHANNELS 3 Xrotation Yrotation Zrotation
						JOINT RightForeArm
						{
							OFFSET -22.049376 0.000000 0.000000
							CHANNELS 3 Xrotation Yrotation Zrotation
							JOINT RightHand
							{
								OFFSET -23.009392 0.000000 0.000000
								CHANNELS 3 Xrotation Yrotation Zrotation
								JOINT RightHandThumb1
								{
									OFFSET -3.507191 -2.063065 3.133727
									CHANNELS 3 Xrotation Yrotation Zrotation
									JOINT RightHandThumb2
									{
										OFFSET -3.101337 -1.790558 1.790558
										CHANNELS 3 Xrotation Yrotation Zrotation
										JOINT RightHandThumb3
										{
											OFFSET -3.058640 -1.765907 1.765906
											CHANNELS 3 Xrotation Yrotation Zrotation
											End Site
											{
												OFFSET 0.415260 3.926476 -0.049563
											}
										}
									}
								}
								JOINT RightHandIndex1
								{
									OFFSET -11.334419 -0.901459 3.706815
									CHANNELS 3 Xrotation Yrotation Zrotation
									JOINT RightHandIndex2
									{
										OFFSET -3.283112 0.000000 0.000000
										CHANNELS 3 Xrotation Yrotation Zrotation
										JOINT RightHandIndex3
										{
											OFFSET -3.323853 0.000000 0.000000
											CHANNELS 3 Xrotation Yrotation Zrotation
											End Site
											{
												OFFSET 1.135597 3.097809 0.402452
											}
										}
									}
								}
								JOINT RightHandMiddle1
								{
									OFFSET -11.335861 0.000000 0.000000
									CHANNELS 3 Xrotation Yrotation Zrotation
									JOINT RightHandMiddle2
									{
										OFFSET -3.410492 0.000000 0.000000
										CHANNELS 3 Xrotation Yrotation Zrotation
										JOINT RightHandMiddle3
										{
											OFFSET -3.312172 0.000000 0.000000
											CHANNELS 3 Xrotation Yrotation Zrotation
											End Site
											{
												OFFSET 1.150200 3.080154 0.400270
											}
										}
									}
								}
								JOINT RightHandRing1
								{
									OFFSET -11.514786 -0.013176 -3.003090
									CHANNELS 3 Xrotation Yrotation Zrotation
									JOINT RightHandRing2
									{
										OFFSET -3.053307 0.000000 0.000000
										CHANNELS 3 Xrotation Yrotation Zrotation
										JOINT RightHandRing3
										{
											OFFSET -3.295807 0.000000 0.000000
											CHANNELS 3 Xrotation Yrotation Zrotation
											End Site
											{
												OFFSET 1.281006 3.013344 0.375733
											}
										}
									}
								}
								JOINT RightHandPinky1
								{
									OFFSET -10.518692 -0.960396 -5.730441
									CHANNELS 3 Xrotation Yrotation Zrotation
									JOINT RightHandPinky2
									{
										OFFSET -2.861649 0.000000 0.000000
										CHANNELS 3 Xrotation Yrotation Zrotation
										JOINT RightHandPinky3
										{
											OFFSET -2.863380 0.000000 0.000000
											CHANNELS 3 Xrotation Yrotation Zrotation
											End Site
											{
												OFFSET 0.843597 2.711159 0.369971
											}
										}
									}
								}
							}
							JOINT RSleeve
							{
								OFFSET -6.676277 -0.344902 -1.011730
								CHANNELS 3 Xrotation Yrotation Zrotation
								End Site
								{
									OFFSET 0.000000 14.885353 0.000000
								}
							}
						}
					}
				}
				JOINT Backpack
				{
					OFFSET 0.000000 -2.471497 36.677502
					CHANNELS 3 Xrotation Yrotation Zrotation
					End Site
					{
						OFFSET 0.000000 20.427315 0.000000
					}
				}
				JOINT Hood
				{
					OFFSET 0.000000 18.754097 -10.431000
					CHANNELS 3 Xrotation Yrotation Zrotation
					JOINT Hood1
					{
						OFFSET 0.000000 -5.011002 -7.685901
						CHANNELS 3 Xrotation Yrotation Zrotation
						End Site
						{
							OFFSET 0.000000 9.175140 0.000000
						}
					}
				}
				JOINT LHoodieString
				{
					OFFSET 5.250500 16.397697 3.089900
					CHANNELS 3 Xrotation Yrotation Zrotation
					JOINT LHoodieString1
					{
						OFFSET 0.257700 -6.364304 3.694600
						CHANNELS 3 Xrotation Yrotation Zrotation
						JOINT LHoodieString2
						{
							OFFSET 0.000000 -9.643799 2.679100
							CHANNELS 3 Xrotation Yrotation Zrotation
							End Site
							{
								OFFSET 0.000000 10.009018 0.000000
							}
						}
					}
				}
				JOINT RHoodieString
				{
					OFFSET -5.250500 16.397697 3.089900
					CHANNELS 3 Xrotation Yrotation Zrotation
					JOINT RHoodieString1
					{
						OFFSET -0.257700 -6.364304 3.694600
						CHANNELS 3 Xrotation Yrotation Zrotation
						JOINT RHoodieString2
						{
							OFFSET 0.000000 -9.643799 2.679100
							CHANNELS 3 Xrotation Yrotation Zrotation
							End Site
							{
								OFFSET 0.000000 10.009018 0.000000
							}
						}
					}
				}
			}
			JOINT LBackpack_Strap
			{
				OFFSET 15.223200 -7.719803 -6.610900
				CHANNELS 3 Xrotation Yrotation Zrotation
				End Site
				{
					OFFSET 0.000000 16.040596 0.000000
				}
			}
			JOINT RBackpack_Strap
			{
				OFFSET -15.223000 -7.719803 -6.610900
				CHANNELS 3 Xrotation Yrotation Zrotation
				End Site
				{
					OFFSET 0.000000 16.040596 0.000000
				}
			}
		}
	}
	JOINT BoyFacialAnim_Joint
	{
		OFFSET 1.000000 -82.208099 -1.550900
		CHANNELS 3 Xrotation Yrotation Zrotation
		End Site
		{
			OFFSET 0.000000 30.012791 0.000000
		}
	}
}
MOTION
Frames: 4
Frame Time: 0.033333
1.172905 69.244659 30.002842 -0.732675 -35.408350 6.845225 -0.000000 0.000000 -0.000000 -43.734657 5.531413 19.173362 43.594820 -8.414371 5.213378 6.046147 -0.080531 -21.713537 -0.000000 0.000003 -0.000000 -0.000000 0.000003 -0.000000 -0.000000 -0.000000 0.000002 -19.573292 -0.473989 -33.885275 50.920122 -3.015373 -10.106656 -26.040593 -6.416683 25.002326 -0.000000 0.000003 -0.000000 -0.000000 0.000003 -0.000000 0.000001 -0.000002 0.000001 24.344104 5.064073 0.575722 -0.217573 0.589230 0.427519 -0.219234 0.607617 0.399703 4.895444 0.773158 -3.806739 10.579097 0.154590 -9.349741 0.000002 -0.000002 0.000001 0.000002 -0.000002 0.000001 0.000002 -0.000002 0.000001 -0.004070 4.936407 -1.385198 -28.827551 -17.794443 -68.114676 -0.000000 -124.068556 -0.000006 17.043868 -4.787560 20.120030 13.533582 3.473506 -0.159367 14.077634 23.623483 -5.814184 -0.000002 -0.000002 0.000002 4.967275 6.610921 -73.813977 6.559392 6.873705 -87.312965 -0.000002 -0.000001 -0.000000 5.057829 6.636817 -73.933458 6.482262 6.869672 -86.668366 -0.000001 -0.000001 0.000002 5.455623 6.732635 -77.834083 7.189431 6.874326 -92.573468 -0.000001 -0.000001 -0.000002 6.734254 7.000276 -78.103473 4.959456 2.521766 -73.794935 -0.000002 0.000003 0.000000 0.000000 -0.000003 0.000004 3.390794 13.999263 -1.319916 -32.041333 27.269955 65.909345 0.000029 115.281039 -0.000045 -4.432546 16.889224 -16.267236 21.416458 -10.846287 9.085714 21.032900 -25.678627 10.354860 -0.000003 0.000001 0.000001 11.170957 -6.284169 100.558608 9.613664 -6.418985 112.607369 0.000001 0.000002 0.000004 9.480908 -6.798603 93.737100 9.087110 -6.612386 107.969670 0.000001 0.000001 -0.000000 7.482669 -6.929099 93.279129 9.738693 -6.365794 113.730532 0.000000 0.000000 0.000000 6.370527 -6.924274 85.219007 9.448637 -6.484822 111.138796 -0.000000 -0.000001 -0.000002 -0.000001 -0.000001 -0.000001 0.000002 -0.000000 0.000001 0.000002 -0.000000 0.000001 0.000002 -0.000000 0.000001 0.000002 -0.000000 0.000001 0.000002 -0.000000 0.000000 0.000001 -0.000001 0.000002 0.000002 -0.000000 0.000001 0.000002 -0.000000 0.000000 0.000001 -0.000001 0.000002 -0.000001 -0.000000 -0.000001 -0.000001 -0.000000 -0.000001 -0.000000 0.000000 -0.000000 
-0.170010 69.010750 27.778236 -1.648355 -34.799213 7.161937 -0.000000 -0.000001 -0.000000 -41.767713 6.207329 19.480307 38.573992 -8.510363 5.676055 9.167762 -1.551864 -23.120184 0.000000 0.000001 -0.000000 0.000000 0.000001 -0.000000 -0.000000 -0.000001 0.000001 -20.103695 -1.550392 -34.729196 51.879071 -1.772208 -9.930229 -25.456699 -8.175292 30.919437 -0.000000 -0.000001 -0.000000 -0.000000 -0.000001 -0.000000 0.000000 0.000003 0.000001 23.565314 4.813168 1.628686 0.130318 0.589089 -0.285708 0.135260 0.573963 -0.309161 4.974521 0.908083 -4.337301 11.127448 0.170905 -9.262903 -0.000000 -0.000001 0.000000 -0.000000 -0.000001 0.000000 -0.000000 -0.000001 0.000000 -0.019839 6.004881 -2.367662 -26.617264 -18.965156 -68.076209 -0.000003 -124.539074 -0.000002 17.409804 -5.291892 20.533435 13.533581 3.473510 -0.159370 14.077632 23.623478 -5.814188 -0.000002 -0.000002 0.000003 4.967275 6.610920 -73.813970 6.559390 6.873706 -87.312965 -0.000000 -0.000000 -0.000002 5.057830 6.636813 -73.933458 6.482261 6.869673 -86.668373 0.000000 -0.000001 0.000002 5.455624 6.732636 -77.834083 7.189429 6.874326 -92.573468 -0.000000 0.000000 -0.000002 6.734257 7.000277 -78.103480 4.959458 2.521767 -73.794935 -0.000001 0.000002 0.000002 -0.000001 -0.000001 0.000000 3.079354 13.879966 -1.878579 -29.069678 27.477687 66.260136 0.000034 116.478563 -0.000035 -2.220593 16.566393 -17.199070 21.416463 -10.846291 9.085713 21.032903 -25.678627 10.354864 0.000000 0.000000 0.000001 11.170957 -6.284171 100.558608 9.613667 -6.418985 112.607375 0.000001 -0.000000 0.000002 9.480910 -6.798611 93.737100 9.087113 -6.612386 107.969663 0.000001 0.000001 -0.000002 7.482670 -6.929105 93.279129 9.738693 -6.365793 113.730525 -0.000001 -0.000001 0.000000 6.370528 -6.924277 85.219000 9.448633 -6.484824 111.138796 -0.000001 -0.000001 -0.000002 -0.000000 0.000001 -0.000001 -0.000000 -0.000003 0.000001 -0.000000 -0.000003 0.000001 -0.000000 -0.000003 0.000001 -0.000000 -0.000003 0.000001 -0.000000 -0.000003 -0.000000 -0.000000 -0.000001 -0.000000 -0.000000 -0.000003 0.000001 -0.000000 -0.000003 -0.000000 -0.000000 -0.000001 -0.000000 0.000001 0.000003 -0.000001 0.000001 0.000003 -0.000001 -0.000000 -0.000001 -0.000000 
-1.533180 68.971390 25.385506 -2.593513 -33.451463 6.862402 -0.000000 0.000001 -0.000000 -39.777816 7.347280 20.202052 32.077734 -8.519305 5.826514 13.072386 -4.937519 -23.722815 0.000000 -0.000000 0.000000 0.000000 -0.000000 0.000000 0.000001 0.000001 0.000001 -22.246003 -2.477925 -33.549394 56.018941 -1.526297 -10.030664 -27.389728 -8.490110 29.461195 -0.000000 0.000002 0.000000 -0.000000 0.000002 0.000000 -0.000001 0.000002 0.000004 22.826200 4.593290 3.406734 0.682219 0.566090 -0.940535 0.692992 0.519685 -0.957679 5.099864 0.957920 -4.711864 11.470043 -0.019274 -9.166772 -0.000001 0.000001 -0.000000 -0.000001 0.000001 -0.000000 -0.000001 0.000001 -0.000000 -0.103819 7.031333 -2.969040 -23.824021 -20.009787 -68.203530 -0.000027 -124.735087 -0.000018 17.681418 -5.820453 20.800267 13.533580 3.473508 -0.159369 14.077629 23.623475 -5.814186 -0.000003 -0.000003 0.000004 4.967271 6.610921 -73.813977 6.559387 6.873705 -87.312965 -0.000002 0.000002 -0.000001 5.057826 6.636818 -73.933458 6.482257 6.869672 -86.668373 0.000001 0.000000 0.000000 5.455618 6.732636 -77.834097 7.189430 6.874327 -92.573468 -0.000000 0.000001 -0.000002 6.734252 7.000275 -78.103480 4.959454 2.521766 -73.794935 -0.000000 0.000001 -0.000000 -0.000000 0.000004 0.000000 2.972364 13.470420 -1.847684 -26.045943 28.387975 65.875187 0.000028 117.492696 -0.000037 -0.517949 16.130301 -17.764822 21.416465 -10.846298 9.085716 21.032910 -25.678626 10.354865 -0.000002 -0.000000 0.000001 11.170958 -6.284170 100.558608 9.613663 -6.418985 112.607375 -0.000001 0.000000 0.000000 9.480910 -6.798603 93.737093 9.087113 -6.612387 107.969670 0.000003 0.000003 0.000000 7.482669 -6.929108 93.279135 9.738695 -6.365793 113.730525 -0.000001 0.000002 0.000001 6.370527 -6.924276 85.219000 9.448636 -6.484823 111.138796 0.000000 -0.000001 0.000002 -0.000001 -0.000003 0.000001 0.000001 -0.000000 0.000001 0.000001 -0.000000 0.000001 0.000001 -0.000000 0.000001 0.000001 -0.000000 0.000001 0.000001 -0.000000 0.000000 -0.000000 0.000001 -0.000000 0.000001 -0.000000 0.000001 0.000001 -0.000000 0.000000 -0.000000 0.000001 -0.000000 -0.000000 -0.000001 -0.000000 -0.000000 -0.000001 -0.000000 -0.000000 0.000001 -0.000000 
-2.849741 69.298973 23.097240 -3.887528 -31.891386 5.926325 0.000000 0.000001 -0.000000 -37.689445 9.074877 21.479637 24.858660 -8.547989 5.047214 18.710386 -10.315350 -22.745954 -0.000000 0.000000 0.000000 -0.000000 0.000000 -0.000000 -0.000000 0.000001 0.000000 -23.466711 -4.719185 -32.090397 58.288978 -0.692993 -10.153178 -28.666335 -8.499154 27.569555 -0.000000 0.000001 0.000000 -0.000000 0.000001 0.000000 -0.000000 -0.000001 -0.000002 21.934820 4.217688 5.029785 1.299893 0.508762 -1.333292 1.312929 0.442124 -1.343499 5.488146 0.913916 -4.787845 11.955528 -0.298705 -8.859774 -0.000003 -0.000000 0.000000 -0.000003 -0.000000 0.000000 -0.000003 -0.000000 0.000000 -0.134457 7.386055 -3.224421 -21.465628 -20.344036 -68.236745 -0.000023 -124.788348 -0.000025 17.625621 -5.925330 19.895334 13.533579 3.473504 -0.159371 14.077629 23.623481 -5.814181 0.000006 -0.000000 0.000002 4.967276 6.610914 -73.813977 6.559387 6.873705 -87.312965 0.000001 -0.000002 -0.000000 5.057831 6.636809 -73.933458 6.482259 6.869674 -86.668373 0.000002 -0.000001 -0.000000 5.455621 6.732632 -77.834083 7.189429 6.874326 -92.573468 -0.000003 -0.000001 0.000001 6.734256 7.000269 -78.103480 4.959459 2.521766 -73.794935 0.000000 -0.000002 0.000001 0.000001 -0.000001 0.000002 3.017184 13.125549 -1.572894 -23.976684 29.332903 65.222788 0.000028 118.007091 -0.000038 0.848547 15.479917 -18.274883 21.416461 -10.846285 9.085716 21.032910 -25.678620 10.354860 -0.000001 0.000002 -0.000000 11.170955 -6.284169 100.558608 9.613666 -6.418987 112.607375 0.000001 0.000001 0.000004 9.480909 -6.798604 93.737100 9.087111 -6.612386 107.969670 0.000001 0.000001 -0.000000 7.482670 -6.929099 93.279129 9.738691 -6.365794 113.730532 0.000001 0.000003 0.000001 6.370525 -6.924273 85.219000 9.448634 -6.484821 111.138796 -0.000001 -0.000000 -0.000002 0.000000 0.000004 0.000001 -0.000000 -0.000001 -0.000000 -0.000000 -0.000001 -0.000000 -0.000000 -0.000001 -0.000000 -0.000000 -0.000001 -0.000000 -0.000000 -0.000001 -0.000000 0.000000 -0.000001 -0.000001 -0.000000 -0.000001 -0.000000 -0.000000 -0.000001 -0.000000 0.000000 -0.000001 -0.000001 0.000002 0.000001 -0.000001 0.000002 0.000001 -0.000001 0.000000 0.000001 -0.000000 
